<svg xmlns="http://www.w3.org/2000/svg" width="21.511" height="21.511" viewBox="0 0 21.511 21.511">
    <path data-name="Path 36" d="M3.392 9.612a8.346 8.346 0 0 1 6.22-6.22 14.837 14.837 0 0 1 6.777 0 8.346 8.346 0 0 1 6.219 6.22 14.838 14.838 0 0 1 0 6.777 8.346 8.346 0 0 1-6.219 6.219 14.838 14.838 0 0 1-6.777 0 8.346 8.346 0 0 1-6.22-6.219 14.837 14.837 0 0 1 0-6.777z" transform="translate(-2.244 -2.244)" style="stroke:#5fcc79;stroke-width:1.5px;fill:none"/>
    <path data-name="Path 36" d="M3.2 6.306A4.173 4.173 0 0 1 6.306 3.2a7.419 7.419 0 0 1 3.388 0 4.173 4.173 0 0 1 3.11 3.11 7.419 7.419 0 0 1 0 3.388 4.173 4.173 0 0 1-3.11 3.11 7.419 7.419 0 0 1-3.388 0A4.173 4.173 0 0 1 3.2 9.694a7.419 7.419 0 0 1 0-3.388z" transform="translate(2.756 2.756)" style="fill:#5fcc79;stroke:#5fcc79;stroke-width:1.5px"/>
    <path data-name="Path 38" d="M5.107.631c2.761 0 5 1.712 5 4.474a5 5 0 0 1-5 5c-2.761 0-4.5-2.054-4.466-5S2.345.631 5.107.631z" transform="translate(5.649 5.651)" style="fill:#5fcc79"/>
</svg>
